<?xml version="1.0" standalone="no"?>
<!DOCTYPE svg PUBLIC "-//W3C//DTD SVG 20010904//EN"
 "http://www.w3.org/TR/2001/REC-SVG-20010904/DTD/svg10.dtd">
<svg version="1.0" xmlns="http://www.w3.org/2000/svg"
 width="72.000000pt" height="72.000000pt" viewBox="0 0 72.000000 72.000000"
 preserveAspectRatio="xMidYMid meet">
<metadata>
Created by potrace 1.14, written by Peter Selinger 2001-2017
</metadata>
<g transform="translate(0.000000,72.000000) scale(0.100000,-0.100000)"
fill="#000000" stroke="none">
<path d="M312 709 c-135 -18 -272 -139 -299 -266 -8 -35 -8 -129 -1 -168 18
-92 102 -198 195 -245 42 -22 61 -25 158 -25 98 0 114 3 142 23 17 12 38 22
46 22 21 0 42 27 25 33 -12 4 -8 7 42 24 12 4 11 7 -5 13 -17 7 -16 9 13 16
21 4 29 10 22 14 -9 5 -3 16 19 35 35 32 39 45 14 45 -12 0 -8 7 13 25 23 20
25 25 11 25 -16 0 -16 2 -2 24 13 19 13 25 3 29 -10 4 -10 8 2 17 11 9 12 13
3 17 -9 3 -10 10 -3 23 7 13 6 20 -3 23 -9 4 -8 8 3 16 13 9 12 11 -4 11 -15
0 -16 3 -6 15 10 12 9 15 -5 15 -14 0 -15 3 -5 15 10 13 9 15 -11 15 -20 0
-21 2 -9 11 11 8 12 12 2 16 -6 2 -10 9 -6 14 3 5 -2 9 -11 9 -9 0 -14 4 -11
9 8 12 -72 91 -91 91 -7 0 -13 4 -13 8 0 13 -94 50 -136 54 -22 2 -63 1 -92
-3z"/>
</g>
</svg>
